<?xml version="1.0" encoding="UTF-8"?>
<svg width="18px" height="18px" viewBox="0 0 18 18" version="1.1" xmlns="http://www.w3.org/2000/svg" xmlns:xlink="http://www.w3.org/1999/xlink">
    <!-- Generator: Sketch 63.1 (92452) - https://sketch.com -->
    <title>color备份 5</title>
    <desc>Created with Sketch.</desc>
    <g id="页面-1" stroke="none" stroke-width="1" >
        <g id="切图" transform="translate(-206.000000, -319.000000)">
            <path d="M212,329 C213.104569,329 214,329.895431 214,331 L214,335 C214,336.104569 213.104569,337 212,337 L208,337 C206.895431,337 206,336.104569 206,335 L206,331 C206,329.895431 206.895431,329 208,329 L212,329 Z M222,329 C223.104569,329 224,329.895431 224,331 L224,335 C224,336.104569 223.104569,337 222,337 L218,337 C216.895431,337 216,336.104569 216,335 L216,331 C216,329.895431 216.895431,329 218,329 L222,329 Z M212,331 L208,331 L208,335 L212,335 L212,331 Z M222,331 L218,331 L218,335 L222,335 L222,331 Z M212,319 C213.104569,319 214,319.895431 214,321 L214,325 C214,326.104569 213.104569,327 212,327 L208,327 C206.895431,327 206,326.104569 206,325 L206,321 C206,319.895431 206.895431,319 208,319 L212,319 Z M222,319 C223.104569,319 224,319.895431 224,321 L224,325 C224,326.104569 223.104569,327 222,327 L218,327 C216.895431,327 216,326.104569 216,325 L216,321 C216,319.895431 216.895431,319 218,319 L222,319 Z M212,321 L208,321 L208,325 L212,325 L212,321 Z M222,321 L218,321 L218,325 L222,325 L222,321 Z" id="color备份-5"></path>
        </g>
    </g>
</svg>