<?xml version="1.0" encoding="UTF-8"?>
<svg width="16px" height="10px" viewBox="0 0 16 10" version="1.1" xmlns="http://www.w3.org/2000/svg" xmlns:xlink="http://www.w3.org/1999/xlink">
    <!-- Generator: Sketch 63.1 (92452) - https://sketch.com -->
    <title>color备份 2</title>
    <desc>Created with Sketch.</desc>
    <g id="页面-1" stroke="none" stroke-width="1" >
        <g id="切图" transform="translate(-138.000000, -324.000000)" >
            <path d="M140,332 L140,334 L138,334 L138,332 L140,332 Z M153,332 C153.552285,332 154,332.447715 154,333 C154,333.552285 153.552285,334 153,334 L143,334 C142.447715,334 142,333.552285 142,333 C142,332.447715 142.447715,332 143,332 L153,332 Z M140,328 L140,330 L138,330 L138,328 L140,328 Z M153,328 C153.552285,328 154,328.447715 154,329 C154,329.552285 153.552285,330 153,330 L143,330 C142.447715,330 142,329.552285 142,329 C142,328.447715 142.447715,328 143,328 L153,328 Z M140,324 L140,326 L138,326 L138,324 L140,324 Z M153,324 C153.552285,324 154,324.447715 154,325 C154,325.552285 153.552285,326 153,326 L143,326 C142.447715,326 142,325.552285 142,325 C142,324.447715 142.447715,324 143,324 L153,324 Z" id="color备份-2"></path>
        </g>
    </g>
</svg>