<svg  style="width:17px;height:17px;" viewBox="1 3 25 20" version="1.1" xmlns="http://www.w3.org/2000/svg" xmlns:xlink="http://www.w3.org/1999/xlink">
    <path d="M17,11 C19.0870823,11 20.925275,12.0656233 22.0001724,13.6824642 L21.9992977,17 L14,17 L13.999,18.952 L14.0215257,20 L2,20 L2,19 C2,15.6862915 4.6862915,13 8,13 C9.37834394,13 10.6509342,13.4657376 11.6661582,14.2517824 C12.6619729,12.3203878 14.6767899,11 17,11 Z M8,15 C6.262041,15 4.78296169,16.1083957 4.23108764,17.6568617 L4.16935611,17.8447471 L4.126,18 L11.873,18 L11.8362038,17.8625071 C11.3826512,16.3294858 10.0355043,15.184559 8.40510457,15.0202994 L8.19987348,15.0049174 L8,15 Z M17,13 C15.6047543,13 14.3763564,13.7143601 13.6606034,14.7972829 L13.535,15 L20.464,15 L20.3707485,14.8449536 C19.6927317,13.7871583 18.53039,13.0707839 17.2006732,13.0049564 L17,13 Z M8,4 C10.209139,4 12,5.790861 12,8 C12,10.209139 10.209139,12 8,12 C5.790861,12 4,10.209139 4,8 C4,5.790861 5.790861,4 8,4 Z M17,4 C18.6568542,4 20,5.34314575 20,7 C20,8.65685425 18.6568542,10 17,10 C15.3431458,10 14,8.65685425 14,7 C14,5.34314575 15.3431458,4 17,4 Z M8,6 C6.8954305,6 6,6.8954305 6,8 C6,9.1045695 6.8954305,10 8,10 C9.1045695,10 10,9.1045695 10,8 C10,6.8954305 9.1045695,6 8,6 Z M17,6 C16.8159051,6 16.4825718,6 16,6 C16,6.48257175 16,6.81590508 16,7 C16,7.18409492 16,7.51742825 16,8 C16.4825718,8 16.8159051,8 17,8 C17.1840949,8 17.5174282,8 18,8 C18,7.51742825 18,7.18409492 18,7 C18,6.90960989 18,6.57627656 18,6 C17.4237234,6 17.0903901,6 17,6 Z" id="color"></path>
</svg>