<?xml version="1.0" encoding="UTF-8"?>
<svg width="16px" height="18px" viewBox="0 0 16 18" version="1.1" xmlns="http://www.w3.org/2000/svg" xmlns:xlink="http://www.w3.org/1999/xlink">
    <g id="页面-1" stroke="none" stroke-width="1" >
        <g id="切图" transform="translate(-35.000000, -321.000000)">
            <path d="M43,330 C47.3349143,330 50.8645429,333.447838 50.9961932,337.750821 L51,338 L51,339 L35,339 L35,338 C35,333.581722 38.581722,330 43,330 Z M43,332 C40.1444368,332 37.7547935,333.99484 37.1486054,336.666985 L37.1010448,336.897654 L37.084,337 L48.915,337 L48.8989552,336.897654 C48.409481,334.2618 46.1969067,332.231185 43.4738604,332.018438 L43.2249383,332.004138 L43,332 Z M43,321 C45.209139,321 47,322.790861 47,325 C47,327.209139 45.209139,329 43,329 C40.790861,329 39,327.209139 39,325 C39,322.790861 40.790861,321 43,321 Z M43,323 C41.8954305,323 41,323.895431 41,325 C41,326.104569 41.8954305,327 43,327 C44.1045695,327 45,326.104569 45,325 C45,323.895431 44.1045695,323 43,323 Z" id="color备份-4"></path>
        </g>
    </g>
</svg>