<?xml version="1.0" encoding="UTF-8"?>
<svg width="14px" height="20px" viewBox="0 0 14 20" version="1.1" xmlns="http://www.w3.org/2000/svg" xmlns:xlink="http://www.w3.org/1999/xlink">
    <!-- Generator: Sketch 63.1 (92452) - https://sketch.com -->
    <title>color备份</title>
    <desc>Created with Sketch.</desc>
    <g id="页面-1" stroke="none" stroke-width="1" >
        <g id="切图" transform="translate(-103.000000, -319.000000)" >
            <path d="M110,319 C113.865993,319 117,322.134007 117,326 C117,328.378164 115.814064,330.479337 114.00133,331.744383 L114,339 L110,336 L106,339 L105.999671,331.745081 C104.186373,330.480111 103,328.378601 103,326 C103,322.134007 106.134007,319 110,319 Z M112,333 L108,333 L108,335 L110,334 L112,335 L112,333 Z M110,321 C107.238576,321 105,323.238576 105,326 C105,328.761424 107.238576,331 110,331 C112.761424,331 115,328.761424 115,326 C115,323.238576 112.761424,321 110,321 Z" id="color备份"></path>
        </g>
    </g>
</svg>