<?xml version="1.0" encoding="UTF-8"?>
<svg width="20px" height="20px" viewBox="0 0 20 20" version="1.1" xmlns="http://www.w3.org/2000/svg" xmlns:xlink="http://www.w3.org/1999/xlink">
    <!-- Generator: Sketch 63.1 (92452) - https://sketch.com -->
    <title>color备份 6</title>
    <desc>Created with Sketch.</desc>
    <g id="页面-1" stroke="none" stroke-width="1" >
        <g id="切图" transform="translate(-241.000000, -318.000000)" >
            <path d="M252.5,318 L255,321 L259,321.5 L261,324.5 L259,328 L261,331.5 L259,334.5 L255,335 L252.5,338 L249.5,338 L247,335 L243,334.5 L241,331.5 L243,328 L241,324.5 L243,321.5 L247,321 L249.5,318 L252.5,318 Z M251.562,319.999 L250.437,319.999 L248.031196,322.886665 L244.156,323.37 L243.35,324.581 L245.303502,328 L243.35,331.418 L244.156,332.629 L248.031196,333.113335 L250.436,335.999 L251.563,335.999 L253.968804,333.113335 L257.843,332.629 L258.649,331.418 L256.696498,328 L258.649,324.581 L257.843,323.37 L253.968804,322.886665 L251.562,319.999 Z M251,324 C253.209139,324 255,325.790861 255,328 C255,330.209139 253.209139,332 251,332 C248.790861,332 247,330.209139 247,328 C247,325.790861 248.790861,324 251,324 Z M251,326 C249.895431,326 249,326.895431 249,328 C249,329.104569 249.895431,330 251,330 C252.104569,330 253,329.104569 253,328 C253,326.895431 252.104569,326 251,326 Z" id="color备份-6"></path>
        </g>
    </g>
</svg>