<?xml version="1.0" encoding="UTF-8"?>
<svg width="17px" height="18px" viewBox="0 0 17 18" version="1.1" xmlns="http://www.w3.org/2000/svg" xmlns:xlink="http://www.w3.org/1999/xlink">
    <!-- Generator: Sketch 63.1 (92452) - https://sketch.com -->
    <title>color备份 3</title>
    <desc>Created with Sketch.</desc>
    <g id="页面-1" stroke="none" stroke-width="1">
        <g id="切图" transform="translate(-168.000000, -320.000000)">
            <path d="M183.785714,336 C184.456346,336 185,336.447715 185,337 C185,337.552285 184.456346,338 183.785714,338 L169.214286,338 C168.543654,338 168,337.552285 168,337 C168,336.447715 168.543654,336 169.214286,336 L183.785714,336 Z M183,320 C184.104569,320 185,320.895431 185,322 L185,334 L168,334 L168,330 C168,328.895431 168.895431,328 170,328 L173,328 L173,326 C173,324.895431 173.895431,324 175,324 L178,324 L178,322 C178,320.895431 178.895431,320 180,320 L183,320 Z M173,330 L170,330 L170,332 L173,332 L173,330 Z M178,326 L175,326 L175,332 L178,332 L178,326 Z M183,322 L180,322 L180,332 L183,332 L183,322 Z" id="color备份-3"></path>
        </g>
    </g>
</svg>